<svg xmlns="http://www.w3.org/2000/svg" width="245.625" height="38.253" viewBox="0 0 245.625 38.253">
  <g id="Group_2" data-name="Group 2" transform="translate(-430.375 -465.375)">
    <g id="Group_1" data-name="Group 1" transform="translate(424 -507.525)">
      <path id="Path_1" data-name="Path 1" d="M34.38,973.525a.642.642,0,0,0-.494.21,28.379,28.379,0,0,0-6.1,9.773,30.11,30.11,0,0,0-10.839-5.715.642.642,0,0,0-.821.476c-1.162,5.365-1.1,10.086.312,14.112a33.9,33.9,0,0,0-8.935.863.641.641,0,0,0-.5.558.649.649,0,0,0,.027.263c2.119,6.635,5.455,11.391,10.1,14.033q6.914,3.935,17.459,1.479,10.526,2.465,17.459-1.479c4.642-2.642,7.977-7.4,10.1-14.033a.641.641,0,0,0-.473-.822,33.571,33.571,0,0,0-9.215-.848c1.413-4.029,1.481-8.756.317-14.127a.642.642,0,0,0-.821-.476,30.151,30.151,0,0,0-10.81,5.69,30.793,30.793,0,0,0-6.3-9.749.649.649,0,0,0-.454-.208Zm-.018,1.6q6.571,7.429,6.734,14.584c.107,4.779-1.915,9.548-6.295,14.366-4.535-4.96-6.7-9.81-6.735-14.591S30.137,979.945,34.363,975.128Zm-17.126,4.109a27.593,27.593,0,0,1,10.141,5.629,17.763,17.763,0,0,0-.592,4.628,18.747,18.747,0,0,0,1.772,7.7,17.359,17.359,0,0,0-3.468-2.5,19.217,19.217,0,0,0-7.242-2.2Q15.7,986.96,17.236,979.237Zm34.423,0q1.536,7.751-.623,13.287a19.106,19.106,0,0,0-6.956,2.163,17.281,17.281,0,0,0-3.031,2.112,17.968,17.968,0,0,0,1.33-7.116,18.262,18.262,0,0,0-.794-4.879,27.693,27.693,0,0,1,10.073-5.566ZM14.9,993.629a19.278,19.278,0,0,1,9.569,2.182c4.192,2.3,7.311,6.433,9.3,12.637-6.564,1.447-11.85.9-16.006-1.465s-7.229-6.565-9.286-12.633a33.769,33.769,0,0,1,6.428-.721Zm39.363,0a33.777,33.777,0,0,1,6.429.721q-3.086,9.1-9.286,12.633c-4.157,2.366-9.442,2.913-16.006,1.465,1.981-6.2,5.1-10.34,9.293-12.637A19.288,19.288,0,0,1,54.267,993.629Z" transform="translate(0)" fill="#098078" stroke="#098078" stroke-width="1.25" fill-rule="evenodd"/>
    </g>
    <text id="Cat_Quinn_Yoga" data-name="Cat Quinn Yoga" transform="translate(495 471)" fill="#e8aece" font-size="24" font-family="Lora-Bold, Lora" font-weight="700"><tspan x="0" y="24">Cat Quinn Yoga</tspan></text>
  </g>
</svg>
