<svg xmlns="http://www.w3.org/2000/svg" xmlns:xlink="http://www.w3.org/1999/xlink" width="175.347" height="38.648" viewBox="0 0 175.347 38.648">
  <defs>
    <clipPath id="clip-path">
      <rect id="Rectangle_1" data-name="Rectangle 1" width="47.819" height="16.049" fill="none"/>
    </clipPath>
    <clipPath id="clip-path-2">
      <rect id="Rectangle_2" data-name="Rectangle 2" width="21.289" height="36.519" fill="none"/>
    </clipPath>
  </defs>
  <g id="Group_10" data-name="Group 10" transform="translate(-439.776 -504)">
    <g id="Group_9" data-name="Group 9" transform="translate(266.05 315.265)">
      <g id="Group_4" data-name="Group 4" transform="translate(173.726 211.335)">
        <g id="Group_3" data-name="Group 3">
          <g id="Group_2" data-name="Group 2" clip-path="url(#clip-path)">
            <g id="Group_1" data-name="Group 1" transform="translate(0 0.819)">
              <path id="Path_1" data-name="Path 1" d="M221.136,213.608a16.035,16.035,0,0,0-5.077-2.211l-.492,1.229a15.963,15.963,0,0,1,4.5,1.8,15.454,15.454,0,0,1-9.09,10.236c-4.5,1.8-9.253.082-11.545-1.065-.983.083-1.638.164-1.638.164a3.6,3.6,0,0,1-.164-.409,3.51,3.51,0,0,1-.163.409,11,11,0,0,1-1.638-.164c-2.292,1.147-6.96,2.867-11.545,1.065a15.293,15.293,0,0,1-9.09-10.236,15.161,15.161,0,0,1,4.422-1.8l-.491-1.229a16.035,16.035,0,0,0-5.077,2.211l-.328.245.082.409a16.4,16.4,0,0,0,9.99,11.546,12.108,12.108,0,0,0,4.668.9,19.311,19.311,0,0,0,9.089-2.621,18.984,18.984,0,0,0,9.09,2.621,12.1,12.1,0,0,0,4.667-.9,16.4,16.4,0,0,0,9.99-11.546l.082-.409Z" transform="translate(-173.726 -211.397)" fill="#098078"/>
            </g>
          </g>
        </g>
      </g>
      <path id="Path_2" data-name="Path 2" d="M216.355,196.67l-.163-.328h-.41a21.5,21.5,0,0,0-10.316,2.866,7.354,7.354,0,0,1,.409,1.229,22.757,22.757,0,0,1,9.416-2.866,20.336,20.336,0,0,1-2.047,18.26c-4.258,6.468-12.692,7.532-14.984,7.778a5.238,5.238,0,0,0-.738.574s-.327-.246-.737-.574c-2.292-.163-10.726-1.31-14.984-7.778a20.734,20.734,0,0,1-2.129-18.26,21.515,21.515,0,0,1,9.416,2.866,7.111,7.111,0,0,0,.409-1.229,21.285,21.285,0,0,0-10.235-2.866h-.41l-.163.328a21.247,21.247,0,0,0,2.047,19.815c5.159,7.779,15.557,8.27,16.54,8.353h.572c.983,0,11.382-.492,16.54-8.353A21.378,21.378,0,0,0,216.355,196.67Z" transform="translate(0.114 0.254)" fill="#098078"/>
      <g id="Group_8" data-name="Group 8" transform="translate(186.664 188.735)">
        <g id="Group_7" data-name="Group 7">
          <g id="Group_6" data-name="Group 6" clip-path="url(#clip-path-2)">
            <g id="Group_5" data-name="Group 5" transform="translate(0.737 -0.082)">
              <path id="Path_3" data-name="Path 3" d="M197.194,225.094l-.327-.246c-.41-.246-9.908-6.878-9.908-17.114,0-12.528,9.825-18.751,9.908-18.832l.327-.246.328.246c.083.082,9.908,6.3,9.908,18.832,0,10.236-9.5,16.786-9.908,17.114Zm0-34.882a21.835,21.835,0,0,0-9.007,17.522c0,8.434,7.287,14.493,9.007,15.8,1.72-1.31,9.008-7.287,9.008-15.8A22.227,22.227,0,0,0,197.194,190.212Z" transform="translate(-186.959 -188.656)" fill="#098078"/>
            </g>
          </g>
        </g>
      </g>
    </g>
    <text id="Cat_Quinn_Yoga" data-name="Cat Quinn Yoga" transform="translate(496.123 515)" fill="#e8aece" font-size="16" font-family="Lora-Bold, Lora" font-weight="700"><tspan x="0" y="16">Cat Quinn Yoga</tspan></text>
  </g>
</svg>
