<svg id="Layer_1" data-name="Layer 1" xmlns="http://www.w3.org/2000/svg" xmlns:xlink="http://www.w3.org/1999/xlink" viewBox="0 0 58.2 47.4"><defs><clipPath id="clip-path" transform="translate(-159.2 -128.3)"><rect x="159.2" y="156" width="58.4" height="19.6" style="fill:none"/></clipPath><clipPath id="clip-path-2" transform="translate(-159.2 -128.3)"><rect x="175" y="128.4" width="26" height="44.6" style="fill:none"/></clipPath></defs><g style="clip-path:url(#clip-path)"><path d="M217.1,159.7a19.61,19.61,0,0,0-6.2-2.7l-.6,1.5a19.49,19.49,0,0,1,5.5,2.2,18.87,18.87,0,0,1-11.1,12.5c-5.5,2.2-11.3.1-14.1-1.3-1.2.1-2,.2-2,.2a4.2,4.2,0,0,1-.2-.5,4.2,4.2,0,0,1-.2.5,13.47,13.47,0,0,1-2-.2c-2.8,1.4-8.5,3.5-14.1,1.3A18.67,18.67,0,0,1,161,160.7a18.51,18.51,0,0,1,5.4-2.2l-.6-1.5a19.61,19.61,0,0,0-6.2,2.7l-.4.3.1.5a20,20,0,0,0,12.2,14.1,14.78,14.78,0,0,0,5.7,1.1,23.59,23.59,0,0,0,11.1-3.2,23.18,23.18,0,0,0,11.1,3.2,14.78,14.78,0,0,0,5.7-1.1,20,20,0,0,0,12.2-14.1l.1-.5Z" transform="translate(-159.2 -128.3)" style="fill:#098078"/></g><path d="M211.4,138.4l-.2-.4h-.5a26.25,26.25,0,0,0-12.6,3.5,8.8,8.8,0,0,1,.5,1.5,27.81,27.81,0,0,1,11.5-3.5,24.84,24.84,0,0,1-2.5,22.3c-5.2,7.9-15.5,9.2-18.3,9.5a6.41,6.41,0,0,0-.9.7s-.4-.3-.9-.7c-2.8-.2-13.1-1.6-18.3-9.5a25.32,25.32,0,0,1-2.6-22.3,26.28,26.28,0,0,1,11.5,3.5,8.8,8.8,0,0,0,.5-1.5,26,26,0,0,0-12.5-3.5h-.5l-.2.4a26,26,0,0,0,2.5,24.2c6.3,9.5,19,10.1,20.2,10.2h.7c1.2,0,13.9-.6,20.2-10.2A26.11,26.11,0,0,0,211.4,138.4Z" transform="translate(-159.2 -128.3)" style="fill:#098078"/><g style="clip-path:url(#clip-path-2)"><path d="M188.4,172.8l-.4-.3c-.5-.3-12.1-8.4-12.1-20.9,0-15.3,12-22.9,12.1-23l.4-.3.4.3c.1.1,12.1,7.7,12.1,23,0,12.5-11.6,20.5-12.1,20.9Zm0-42.6a26.67,26.67,0,0,0-11,21.4c0,10.3,8.9,17.7,11,19.3,2.1-1.6,11-8.9,11-19.3A27.15,27.15,0,0,0,188.4,130.2Z" transform="translate(-159.2 -128.3)" style="fill:#098078"/></g></svg>